<svg width="500" height="500" viewBox="0 0 500 500" fill="none" xmlns="http://www.w3.org/2000/svg">
<foreignObject x="256.475" y="179.901" width="264.543" height="249.141"><div xmlns="http://www.w3.org/1999/xhtml" style="backdrop-filter:blur(12px);clip-path:url(#bgblur_0_32_5380_clip_path);height:100%;width:100%"></div></foreignObject><path data-figma-bg-blur-radius="24" d="M410.217 207.246C422.011 200.396 437.125 204.404 443.976 216.198L478.086 274.922L493.677 301.764C498.375 309.852 498.101 319.901 492.967 327.721L451.297 391.193C447.031 397.69 439.955 401.802 432.198 402.288L388.227 405.042C396.126 387.892 389.827 367.228 373.169 357.553L281.666 304.403C278.164 293.582 282.532 281.413 292.768 275.468L410.217 207.246Z" fill="#0073FF"/>
<foreignObject x="160.273" y="272.666" width="242.992" height="251.182"><div xmlns="http://www.w3.org/1999/xhtml" style="backdrop-filter:blur(12px);clip-path:url(#bgblur_1_32_5380_clip_path);height:100%;width:100%"></div></foreignObject><path data-figma-bg-blur-radius="24" d="M218.725 304.875C226.372 296.329 239.213 294.025 249.519 300.011L366.969 368.231C378.762 375.082 382.771 390.196 375.92 401.99L341.809 460.714L326.219 487.556C321.521 495.644 312.656 500.384 303.32 499.799L227.54 495.051C219.782 494.565 212.705 490.456 208.439 483.958L184.273 447.147C203.013 445.44 217.763 429.758 217.911 410.545L218.725 304.875Z" fill="#0073FF"/>
<foreignObject x="-0.208496" y="226.388" width="230.821" height="232.566"><div xmlns="http://www.w3.org/1999/xhtml" style="backdrop-filter:blur(12px);clip-path:url(#bgblur_2_32_5380_clip_path);height:100%;width:100%"></div></foreignObject><path data-figma-bg-blur-radius="24" d="M187.544 250.388C198.546 252.951 206.702 262.861 206.612 274.629L205.563 410.45C205.457 424.088 194.316 435.059 180.677 434.954L112.768 434.429L81.7266 434.19C72.3733 434.117 63.8628 428.767 59.7443 420.369L26.3142 352.196C22.8917 345.217 22.9547 337.034 26.4845 330.108L46.0747 291.669C56.8028 307.629 78.2014 312.828 95.1671 303.14L187.544 250.388ZM87.8025 293.076C87.6982 293.128 87.5938 293.179 87.489 293.229C87.5938 293.179 87.6982 293.128 87.8025 293.076ZM57.8557 286.822L57.812 286.771C57.7504 286.697 57.6904 286.621 57.6296 286.546C57.7046 286.639 57.7796 286.731 57.8557 286.822Z" fill="#0073FF"/>
<foreignObject x="-20.9683" y="70.8105" width="264.412" height="248.861"><div xmlns="http://www.w3.org/1999/xhtml" style="backdrop-filter:blur(12px);clip-path:url(#bgblur_3_32_5380_clip_path);height:100%;width:100%"></div></foreignObject><path data-figma-bg-blur-radius="24" d="M112.088 94.8105C104.498 111.779 110.697 132.109 127.082 141.788L218.088 195.55C221.908 206.561 217.481 219.075 206.993 225.064L89.0426 292.418C77.199 299.181 62.1151 295.062 55.3517 283.219L21.6743 224.243L6.28188 197.288C1.64349 189.165 1.99252 179.119 7.18324 171.337L49.3195 108.173C53.6332 101.706 60.7401 97.6496 68.5013 97.2207L112.088 94.8105Z" fill="#0073FF"/>
<foreignObject x="97.2236" y="-24" width="242.9" height="251.676"><div xmlns="http://www.w3.org/1999/xhtml" style="backdrop-filter:blur(12px);clip-path:url(#bgblur_4_32_5380_clip_path);height:100%;width:100%"></div></foreignObject><path data-figma-bg-blur-radius="24" d="M174.99 12.1339C179.748 4.08069 188.647 -0.592796 197.978 0.060559L273.721 5.36622C281.475 5.90939 288.522 10.071 292.74 16.6L316.124 52.7991C316.031 52.8048 315.938 52.8124 315.845 52.8187C315.687 52.8295 315.528 52.8406 315.37 52.8534C315.23 52.8647 315.091 52.8782 314.951 52.8911C314.778 52.9071 314.604 52.9224 314.431 52.9408C314.315 52.9532 314.199 52.9665 314.083 52.98C313.893 53.0021 313.703 53.0243 313.513 53.0493C313.407 53.0634 313.3 53.0796 313.194 53.0945C312.991 53.1231 312.788 53.1531 312.586 53.185C312.504 53.1979 312.422 53.2122 312.341 53.2257C312.134 53.2597 311.927 53.2937 311.721 53.3312C311.604 53.3525 311.488 53.3751 311.371 53.3975C311.197 53.4311 311.022 53.464 310.848 53.5C310.731 53.5243 310.614 53.5514 310.497 53.5769C310.033 53.6778 309.571 53.7858 309.113 53.904C308.973 53.9401 308.834 53.9792 308.694 54.017C307.539 54.33 306.405 54.6966 305.297 55.1158C304.878 55.2741 304.463 55.4388 304.052 55.6117C303.882 55.683 303.714 55.7565 303.546 55.8303C303.447 55.8734 303.348 55.9159 303.25 55.9599C303.094 56.0302 302.938 56.1031 302.783 56.1754C302.666 56.23 302.548 56.284 302.432 56.3397C302.316 56.3948 302.203 56.4523 302.088 56.5085C301.927 56.5876 301.767 56.6669 301.607 56.7482C301.508 56.7985 301.41 56.8493 301.312 56.9004C301.162 56.9787 301.012 57.0569 300.863 57.1371C300.72 57.2138 300.579 57.2922 300.438 57.3707C300.33 57.4303 300.223 57.4895 300.116 57.5501C299.95 57.645 299.784 57.7421 299.619 57.8395C299.54 57.886 299.461 57.9325 299.382 57.9797C299.242 58.0641 299.102 58.1497 298.962 58.2359C298.823 58.3219 298.684 58.4088 298.546 58.4967C298.446 58.5605 298.346 58.6248 298.246 58.6896C298.122 58.7699 297.999 58.8506 297.877 58.9323C297.733 59.0282 297.59 59.1253 297.447 59.2232C297.352 59.2882 297.258 59.3532 297.164 59.4191C297.027 59.5151 296.891 59.6123 296.755 59.71C296.65 59.7858 296.546 59.8623 296.442 59.9391C296.31 60.0361 296.178 60.1329 296.048 60.2316C295.944 60.311 295.84 60.3922 295.736 60.4727C295.618 60.5646 295.499 60.6568 295.382 60.7501C295.277 60.8339 295.172 60.9184 295.067 61.0033C294.933 61.112 294.8 61.2214 294.668 61.3319C294.574 61.41 294.482 61.4895 294.389 61.5685C294.28 61.6612 294.171 61.7534 294.063 61.8474C293.937 61.9573 293.812 62.0688 293.688 62.1805C293.586 62.2717 293.484 62.3625 293.383 62.4548C293.29 62.5401 293.198 62.6264 293.106 62.7126C292.98 62.8305 292.854 62.9485 292.729 63.0683C292.652 63.1424 292.577 63.2181 292.5 63.2929C292.372 63.4186 292.242 63.5436 292.116 63.6712C292.036 63.7514 291.958 63.833 291.879 63.9139C291.752 64.0439 291.626 64.1739 291.501 64.3058C291.436 64.3744 291.372 64.4446 291.308 64.5138C291.177 64.6539 291.046 64.7937 290.917 64.9358C290.815 65.0496 290.715 65.1659 290.613 65.281C290.531 65.3736 290.448 65.4649 290.367 65.5583C290.254 65.6888 290.144 65.8211 290.033 65.9532C289.125 67.0329 288.279 68.1651 287.497 69.3446C287.239 69.7344 286.986 70.1279 286.742 70.5278C286.692 70.6096 286.645 70.6929 286.596 70.775C286.497 70.9402 286.399 71.1056 286.302 71.2724C286.233 71.3918 286.166 71.5125 286.099 71.6327C286.027 71.7607 285.954 71.8881 285.883 72.017C285.811 72.1483 285.742 72.2812 285.672 72.4135C285.599 72.551 285.525 72.688 285.454 72.8265C285.404 72.9231 285.355 73.0202 285.306 73.1174C285.225 73.2772 285.145 73.4371 285.066 73.5982C285.006 73.7227 284.947 73.8483 284.888 73.9735C284.818 74.1214 284.748 74.2692 284.68 74.4182C284.632 74.5231 284.587 74.6292 284.54 74.7347C284.468 74.8962 284.396 75.0574 284.326 75.22C284.281 75.3266 284.237 75.434 284.192 75.5411C284.117 75.7218 284.043 75.9031 283.97 76.0852C283.93 76.1864 283.891 76.288 283.851 76.3897C283.796 76.5315 283.742 76.6736 283.689 76.8163C283.63 76.9725 283.573 77.1293 283.517 77.2865C283.469 77.4184 283.422 77.5504 283.377 77.6829C283.331 77.8152 283.287 77.948 283.242 78.0809C283.188 78.2437 283.135 78.4069 283.083 78.5707C283.043 78.6944 283.006 78.8188 282.968 78.943C282.924 79.0884 282.88 79.234 282.837 79.3802C282.797 79.5181 282.756 79.6561 282.718 79.7947C282.667 79.9765 282.618 80.1589 282.57 80.3418C282.545 80.4376 282.521 80.5336 282.496 80.6297C282.452 80.805 282.409 80.9809 282.367 81.1573C282.335 81.2906 282.304 81.4242 282.273 81.5582C282.238 81.7116 282.205 81.8653 282.172 82.0194C282.143 82.1554 282.114 82.2914 282.086 82.4279C282.048 82.6197 282.012 82.8123 281.976 83.0052C281.959 83.1011 281.94 83.1969 281.923 83.2931C281.893 83.4684 281.865 83.6445 281.836 83.8206C281.812 83.9672 281.787 84.1136 281.765 84.2608C281.748 84.3791 281.732 84.4978 281.715 84.6165C281.691 84.795 281.665 84.9737 281.643 85.1531C281.624 85.3044 281.609 85.4564 281.592 85.6083C281.575 85.7588 281.557 85.9094 281.542 86.0605C281.491 86.5699 281.453 87.0826 281.423 87.5979C281.417 87.7043 281.409 87.8108 281.403 87.9174C281.373 88.5316 281.358 89.1497 281.358 89.7714V195.348C273.676 204.045 260.669 206.36 250.307 200.239L133.362 131.156C121.619 124.218 117.723 109.075 124.66 97.332L159.201 38.8612L174.99 12.1339Z" fill="#0073FF"/>
<foreignObject x="269.707" y="41.0771" width="230.3" height="230.303"><div xmlns="http://www.w3.org/1999/xhtml" style="backdrop-filter:blur(12px);clip-path:url(#bgblur_5_32_5380_clip_path);height:100%;width:100%"></div></foreignObject><path data-figma-bg-blur-radius="24" d="M417.356 65.0771C426.709 65.0771 435.26 70.3623 439.443 78.7287L473.4 146.641C476.876 153.594 476.876 161.776 473.4 168.729L458.112 199.302C455.837 203.851 449.42 204.052 446.865 199.654C440.015 187.86 424.9 183.852 413.106 190.702L320.863 244.283C315.174 247.587 308 248.944 302.884 244.808C297.286 240.281 293.707 233.358 293.707 225.597V89.7726C293.707 76.1337 304.763 65.0771 318.402 65.0771H417.356Z" fill="#0073FF"/>
<defs>
<clipPath id="bgblur_0_32_5380_clip_path" transform="translate(-256.475 -179.901)"><path d="M410.217 207.246C422.011 200.396 437.125 204.404 443.976 216.198L478.086 274.922L493.677 301.764C498.375 309.852 498.101 319.901 492.967 327.721L451.297 391.193C447.031 397.69 439.955 401.802 432.198 402.288L388.227 405.042C396.126 387.892 389.827 367.228 373.169 357.553L281.666 304.403C278.164 293.582 282.532 281.413 292.768 275.468L410.217 207.246Z"/>
</clipPath><clipPath id="bgblur_1_32_5380_clip_path" transform="translate(-160.273 -272.666)"><path d="M218.725 304.875C226.372 296.329 239.213 294.025 249.519 300.011L366.969 368.231C378.762 375.082 382.771 390.196 375.92 401.99L341.809 460.714L326.219 487.556C321.521 495.644 312.656 500.384 303.32 499.799L227.54 495.051C219.782 494.565 212.705 490.456 208.439 483.958L184.273 447.147C203.013 445.44 217.763 429.758 217.911 410.545L218.725 304.875Z"/>
</clipPath><clipPath id="bgblur_2_32_5380_clip_path" transform="translate(0.208496 -226.388)"><path d="M187.544 250.388C198.546 252.951 206.702 262.861 206.612 274.629L205.563 410.45C205.457 424.088 194.316 435.059 180.677 434.954L112.768 434.429L81.7266 434.19C72.3733 434.117 63.8628 428.767 59.7443 420.369L26.3142 352.196C22.8917 345.217 22.9547 337.034 26.4845 330.108L46.0747 291.669C56.8028 307.629 78.2014 312.828 95.1671 303.14L187.544 250.388ZM87.8025 293.076C87.6982 293.128 87.5938 293.179 87.489 293.229C87.5938 293.179 87.6982 293.128 87.8025 293.076ZM57.8557 286.822L57.812 286.771C57.7504 286.697 57.6904 286.621 57.6296 286.546C57.7046 286.639 57.7796 286.731 57.8557 286.822Z"/>
</clipPath><clipPath id="bgblur_3_32_5380_clip_path" transform="translate(20.9683 -70.8105)"><path d="M112.088 94.8105C104.498 111.779 110.697 132.109 127.082 141.788L218.088 195.55C221.908 206.561 217.481 219.075 206.993 225.064L89.0426 292.418C77.199 299.181 62.1151 295.062 55.3517 283.219L21.6743 224.243L6.28188 197.288C1.64349 189.165 1.99252 179.119 7.18324 171.337L49.3195 108.173C53.6332 101.706 60.7401 97.6496 68.5013 97.2207L112.088 94.8105Z"/>
</clipPath><clipPath id="bgblur_4_32_5380_clip_path" transform="translate(-97.2236 24)"><path d="M174.99 12.1339C179.748 4.08069 188.647 -0.592796 197.978 0.060559L273.721 5.36622C281.475 5.90939 288.522 10.071 292.74 16.6L316.124 52.7991C316.031 52.8048 315.938 52.8124 315.845 52.8187C315.687 52.8295 315.528 52.8406 315.37 52.8534C315.23 52.8647 315.091 52.8782 314.951 52.8911C314.778 52.9071 314.604 52.9224 314.431 52.9408C314.315 52.9532 314.199 52.9665 314.083 52.98C313.893 53.0021 313.703 53.0243 313.513 53.0493C313.407 53.0634 313.3 53.0796 313.194 53.0945C312.991 53.1231 312.788 53.1531 312.586 53.185C312.504 53.1979 312.422 53.2122 312.341 53.2257C312.134 53.2597 311.927 53.2937 311.721 53.3312C311.604 53.3525 311.488 53.3751 311.371 53.3975C311.197 53.4311 311.022 53.464 310.848 53.5C310.731 53.5243 310.614 53.5514 310.497 53.5769C310.033 53.6778 309.571 53.7858 309.113 53.904C308.973 53.9401 308.834 53.9792 308.694 54.017C307.539 54.33 306.405 54.6966 305.297 55.1158C304.878 55.2741 304.463 55.4388 304.052 55.6117C303.882 55.683 303.714 55.7565 303.546 55.8303C303.447 55.8734 303.348 55.9159 303.25 55.9599C303.094 56.0302 302.938 56.1031 302.783 56.1754C302.666 56.23 302.548 56.284 302.432 56.3397C302.316 56.3948 302.203 56.4523 302.088 56.5085C301.927 56.5876 301.767 56.6669 301.607 56.7482C301.508 56.7985 301.41 56.8493 301.312 56.9004C301.162 56.9787 301.012 57.0569 300.863 57.1371C300.72 57.2138 300.579 57.2922 300.438 57.3707C300.33 57.4303 300.223 57.4895 300.116 57.5501C299.95 57.645 299.784 57.7421 299.619 57.8395C299.54 57.886 299.461 57.9325 299.382 57.9797C299.242 58.0641 299.102 58.1497 298.962 58.2359C298.823 58.3219 298.684 58.4088 298.546 58.4967C298.446 58.5605 298.346 58.6248 298.246 58.6896C298.122 58.7699 297.999 58.8506 297.877 58.9323C297.733 59.0282 297.59 59.1253 297.447 59.2232C297.352 59.2882 297.258 59.3532 297.164 59.4191C297.027 59.5151 296.891 59.6123 296.755 59.71C296.65 59.7858 296.546 59.8623 296.442 59.9391C296.31 60.0361 296.178 60.1329 296.048 60.2316C295.944 60.311 295.84 60.3922 295.736 60.4727C295.618 60.5646 295.499 60.6568 295.382 60.7501C295.277 60.8339 295.172 60.9184 295.067 61.0033C294.933 61.112 294.8 61.2214 294.668 61.3319C294.574 61.41 294.482 61.4895 294.389 61.5685C294.28 61.6612 294.171 61.7534 294.063 61.8474C293.937 61.9573 293.812 62.0688 293.688 62.1805C293.586 62.2717 293.484 62.3625 293.383 62.4548C293.29 62.5401 293.198 62.6264 293.106 62.7126C292.98 62.8305 292.854 62.9485 292.729 63.0683C292.652 63.1424 292.577 63.2181 292.5 63.2929C292.372 63.4186 292.242 63.5436 292.116 63.6712C292.036 63.7514 291.958 63.833 291.879 63.9139C291.752 64.0439 291.626 64.1739 291.501 64.3058C291.436 64.3744 291.372 64.4446 291.308 64.5138C291.177 64.6539 291.046 64.7937 290.917 64.9358C290.815 65.0496 290.715 65.1659 290.613 65.281C290.531 65.3736 290.448 65.4649 290.367 65.5583C290.254 65.6888 290.144 65.8211 290.033 65.9532C289.125 67.0329 288.279 68.1651 287.497 69.3446C287.239 69.7344 286.986 70.1279 286.742 70.5278C286.692 70.6096 286.645 70.6929 286.596 70.775C286.497 70.9402 286.399 71.1056 286.302 71.2724C286.233 71.3918 286.166 71.5125 286.099 71.6327C286.027 71.7607 285.954 71.8881 285.883 72.017C285.811 72.1483 285.742 72.2812 285.672 72.4135C285.599 72.551 285.525 72.688 285.454 72.8265C285.404 72.9231 285.355 73.0202 285.306 73.1174C285.225 73.2772 285.145 73.4371 285.066 73.5982C285.006 73.7227 284.947 73.8483 284.888 73.9735C284.818 74.1214 284.748 74.2692 284.68 74.4182C284.632 74.5231 284.587 74.6292 284.54 74.7347C284.468 74.8962 284.396 75.0574 284.326 75.22C284.281 75.3266 284.237 75.434 284.192 75.5411C284.117 75.7218 284.043 75.9031 283.97 76.0852C283.93 76.1864 283.891 76.288 283.851 76.3897C283.796 76.5315 283.742 76.6736 283.689 76.8163C283.63 76.9725 283.573 77.1293 283.517 77.2865C283.469 77.4184 283.422 77.5504 283.377 77.6829C283.331 77.8152 283.287 77.948 283.242 78.0809C283.188 78.2437 283.135 78.4069 283.083 78.5707C283.043 78.6944 283.006 78.8188 282.968 78.943C282.924 79.0884 282.88 79.234 282.837 79.3802C282.797 79.5181 282.756 79.6561 282.718 79.7947C282.667 79.9765 282.618 80.1589 282.57 80.3418C282.545 80.4376 282.521 80.5336 282.496 80.6297C282.452 80.805 282.409 80.9809 282.367 81.1573C282.335 81.2906 282.304 81.4242 282.273 81.5582C282.238 81.7116 282.205 81.8653 282.172 82.0194C282.143 82.1554 282.114 82.2914 282.086 82.4279C282.048 82.6197 282.012 82.8123 281.976 83.0052C281.959 83.1011 281.94 83.1969 281.923 83.2931C281.893 83.4684 281.865 83.6445 281.836 83.8206C281.812 83.9672 281.787 84.1136 281.765 84.2608C281.748 84.3791 281.732 84.4978 281.715 84.6165C281.691 84.795 281.665 84.9737 281.643 85.1531C281.624 85.3044 281.609 85.4564 281.592 85.6083C281.575 85.7588 281.557 85.9094 281.542 86.0605C281.491 86.5699 281.453 87.0826 281.423 87.5979C281.417 87.7043 281.409 87.8108 281.403 87.9174C281.373 88.5316 281.358 89.1497 281.358 89.7714V195.348C273.676 204.045 260.669 206.36 250.307 200.239L133.362 131.156C121.619 124.218 117.723 109.075 124.66 97.332L159.201 38.8612L174.99 12.1339Z"/>
</clipPath><clipPath id="bgblur_5_32_5380_clip_path" transform="translate(-269.707 -41.0771)"><path d="M417.356 65.0771C426.709 65.0771 435.26 70.3623 439.443 78.7287L473.4 146.641C476.876 153.594 476.876 161.776 473.4 168.729L458.112 199.302C455.837 203.851 449.42 204.052 446.865 199.654C440.015 187.86 424.9 183.852 413.106 190.702L320.863 244.283C315.174 247.587 308 248.944 302.884 244.808C297.286 240.281 293.707 233.358 293.707 225.597V89.7726C293.707 76.1337 304.763 65.0771 318.402 65.0771H417.356Z"/>
</clipPath></defs>
</svg>
